<svg width="178" height="178" viewBox="0 0 178 178" fill="none" xmlns="http://www.w3.org/2000/svg">
<g id="logo">
<path id="Vector" d="M88.6 177.2C137.532 177.2 177.2 137.532 177.2 88.6C177.2 39.6676 137.532 0 88.6 0C39.6676 0 0 39.6676 0 88.6C0 137.532 39.6676 177.2 88.6 177.2Z" fill="#B50014"/>
<g id="Group">
<path id="Vector_2" d="M130.907 119.072C129.501 118.955 128.212 118.837 126.806 118.72C125.985 118.603 125.282 118.955 124.579 119.775C123.876 120.478 123.524 121.299 123.524 122.236C123.524 123.642 124.227 124.932 125.516 126.104C126.806 127.276 128.212 127.979 129.618 128.096C131.376 128.213 132.665 127.861 133.603 126.924C134.541 125.986 134.658 124.228 133.955 121.65C133.486 120.244 132.431 119.423 130.907 119.072Z" fill="white"/>
<path id="Vector_3" d="M137.588 97.7425C138.76 95.9846 138.057 93.7579 135.596 93.5235C134.189 93.4063 133.369 92.9375 133.486 91.0624C133.603 86.0229 131.377 82.2727 127.509 79.3428C123.29 76.1785 118.368 75.3581 113.446 74.8893C109.813 74.5378 106.179 74.1862 102.195 73.3658C104.07 72.311 105.711 71.4907 107.117 70.5531C111.805 67.7404 116.141 64.4589 119.774 60.1227C123.173 56.0208 124.11 49.4579 121.649 44.77C118.954 39.4962 114.149 38.3243 108.992 38.4415C105.008 38.5586 101.023 39.4962 97.3898 41.2542C88.8345 45.356 80.9824 50.5126 73.599 56.6068C70.6692 59.0679 67.7393 61.4118 64.6922 63.9901C65.0438 61.8806 65.5125 60.1227 65.7469 58.2475C66.6845 52.6221 66.2157 47.1139 63.5202 42.0745C62.2311 39.8478 60.4731 38.3243 58.012 37.8555C56.9573 37.6211 56.2541 37.9727 55.6681 38.9102C55.1993 39.8478 54.8477 40.7854 55.5509 41.7229C56.0197 42.4261 56.4885 43.1293 57.1916 43.5981C59.5356 45.4732 60.3559 48.0515 60.4731 50.9814C60.9419 58.4819 58.012 65.0449 55.1993 71.7251C54.9649 72.1938 54.4961 72.5454 54.0274 73.0142C51.449 75.5925 48.7535 77.9364 46.4096 80.6319C42.0734 85.5542 37.7371 90.5936 35.276 96.9221C33.0493 102.782 34.9244 110.868 39.6123 114.619C41.4874 116.142 43.7141 116.025 45.4721 114.384C46.9956 112.978 47.9332 111.103 48.8707 109.228C59.0668 88.6012 71.8411 70.0843 88.2485 54.2629C93.1707 49.5751 98.7961 46.1764 105.476 45.0044C109.227 44.3012 113.563 48.5203 113.797 51.919C114.032 56.724 111.453 59.7711 108.406 62.5838C103.718 66.8028 98.3274 69.6155 92.702 72.1938C89.7721 73.483 87.0766 74.8893 84.6154 76.9989C82.0371 79.2256 80.8652 82.1555 81.8028 85.6713C82.6231 88.9528 85.0842 90.0076 87.8969 90.242C95.2803 90.7108 102.664 90.9452 110.047 91.4139C113.094 91.6483 116.258 91.6483 118.719 94.2266C118.485 94.6954 118.133 94.6954 117.782 94.8126C102.429 97.8597 87.311 101.962 72.8959 108.525C69.966 109.814 67.3877 111.572 65.161 113.916C61.4107 117.783 61.1763 123.877 66.6845 127.159C73.0131 130.792 79.576 130.089 86.139 129.034C97.9758 127.159 108.641 121.65 118.602 114.853C123.876 111.22 128.095 106.649 131.142 101.024C131.963 99.5004 132.783 98.5629 134.658 98.9145C135.596 98.9145 136.885 98.9145 137.588 97.7425ZM119.891 101.493C119.188 104.423 117.196 106.649 115.086 108.407C105.945 115.673 96.1006 121.299 84.6154 123.291C83.2091 123.526 81.9199 123.526 80.5136 123.643C78.9901 123.643 77.4665 123.643 76.0602 123.057C73.4819 122.002 72.6615 119.775 73.7162 117.197C74.4194 115.673 75.4742 114.502 76.8805 113.564C83.3263 109.345 90.5924 107.47 97.6242 105.126C104.422 102.899 111.336 101.376 118.368 99.7348C119.891 99.5005 120.126 100.086 119.891 101.493Z" fill="white"/>
<path id="Vector_4" d="M58.5978 146.143C59.887 143.916 58.715 142.041 56.1367 140.518L52.8552 138.525L45.7063 150.714L48.9878 152.589C51.4489 154.112 54.0272 154.698 55.5507 152.12C56.6055 150.362 56.0195 148.604 54.496 147.549C56.1367 148.135 57.5431 147.784 58.5978 146.143ZM53.6756 150.948C52.738 152.589 51.0973 152.12 49.5738 151.183L48.2846 150.362L50.7457 146.26L51.9177 146.963C53.2068 147.784 54.7304 149.073 53.6756 150.948ZM52.3865 145.44L51.4489 144.854L53.6756 141.104L55.5507 142.158C56.6055 142.744 57.5431 143.916 56.7227 145.323C55.6679 147.081 54.1444 146.378 52.3865 145.44Z" fill="white"/>
<path id="Vector_5" d="M66.5672 145.676L63.2857 144.504L58.3635 157.748L60.2387 158.451L62.4654 152.591L63.6373 153.06C64.6921 153.411 65.2781 153.646 65.3953 155.169L65.7469 160.56L67.8564 161.381L67.2704 155.169C67.1532 154.232 67.036 153.763 66.45 153.411C68.0908 153.763 69.7315 153.06 70.3175 151.419C71.4895 148.02 69.1455 146.614 66.5672 145.676ZM68.3252 150.481C67.8564 151.771 66.45 152.122 64.6921 151.536L63.0514 150.95L64.5749 146.966L66.45 147.669C68.0908 148.137 68.7939 149.309 68.3252 150.481Z" fill="white"/>
<path id="Vector_6" d="M96.3349 149.542L85.5529 149.894V151.652L90.0063 151.535L90.4751 163.958L92.4674 163.84L91.9986 151.418L96.4521 151.3L96.3349 149.542Z" fill="white"/>
<path id="Vector_7" d="M106.531 147.198L107.937 152.94L101.257 154.581L99.9681 148.721L97.9758 149.19L101.257 163.019L103.25 162.55L101.726 156.222L108.289 154.698L109.813 161.027L111.805 160.558L108.523 146.729L106.531 147.198Z" fill="white"/>
<path id="Vector_8" d="M78.9898 149.073L70.7861 162.082L72.8957 162.434L74.888 159.152L81.8025 160.207L82.6229 163.957L84.8496 164.309L81.0994 149.425L78.9898 149.073ZM75.8255 157.511L79.693 151.066L81.3338 158.449L75.8255 157.511Z" fill="white"/>
<path id="Vector_9" d="M127.392 149.777C126.923 150.011 126.806 150.714 127.04 151.183C127.275 151.535 127.626 151.652 127.861 151.652C128.095 151.652 128.212 151.652 128.447 151.535C128.915 151.183 129.033 150.597 128.798 150.128C128.564 149.542 127.861 149.425 127.392 149.777Z" fill="white"/>
<path id="Vector_10" d="M132.431 146.262C131.962 146.613 131.845 147.199 132.197 147.668C132.431 147.902 132.666 148.02 133.017 148.02C133.251 148.02 133.486 147.902 133.603 147.785C134.072 147.434 134.189 146.848 133.837 146.379C133.603 146.027 132.9 145.91 132.431 146.262Z" fill="white"/>
<path id="Vector_11" d="M137.236 142.395C136.767 142.746 136.767 143.449 137.119 143.801C137.353 144.035 137.588 144.153 137.939 144.153C138.174 144.153 138.408 144.035 138.643 143.918C139.111 143.567 139.111 142.863 138.76 142.512C138.291 142.043 137.588 141.926 137.236 142.395Z" fill="white"/>
<path id="Vector_12" d="M162.433 93.1719C161.847 93.1719 161.378 93.5235 161.378 94.1094C161.378 94.6954 161.73 95.1642 162.316 95.1642C162.316 95.1642 162.316 95.1642 162.433 95.1642C162.902 95.1642 163.371 94.8126 163.488 94.2266C163.371 93.6407 163.019 93.1719 162.433 93.1719Z" fill="white"/>
<path id="Vector_13" d="M153.878 122.821C153.409 122.587 152.706 122.704 152.472 123.173C152.237 123.642 152.354 124.228 152.823 124.579C152.94 124.696 153.175 124.696 153.292 124.696C153.644 124.696 153.995 124.462 154.23 124.11C154.581 123.759 154.347 123.173 153.878 122.821Z" fill="white"/>
<path id="Vector_14" d="M156.573 117.197C156.105 116.963 155.401 117.197 155.167 117.666C154.933 118.135 155.167 118.721 155.753 119.073C155.87 119.073 155.987 119.19 156.105 119.19C156.456 119.19 156.925 118.955 157.042 118.604C157.277 118.135 157.042 117.432 156.573 117.197Z" fill="white"/>
<path id="Vector_15" d="M160.441 105.477C159.855 105.36 159.386 105.711 159.152 106.18C159.035 106.766 159.386 107.235 159.855 107.469C159.972 107.469 159.972 107.469 160.089 107.469C160.558 107.469 160.91 107.118 161.027 106.649C161.378 106.18 161.027 105.594 160.441 105.477Z" fill="white"/>
<path id="Vector_16" d="M150.714 128.212C150.245 127.861 149.542 127.978 149.307 128.447C148.956 128.915 149.073 129.501 149.542 129.853C149.659 129.97 149.893 129.97 150.128 129.97C150.479 129.97 150.831 129.853 150.948 129.501C151.3 129.15 151.183 128.564 150.714 128.212Z" fill="white"/>
<path id="Vector_17" d="M158.8 111.455C158.214 111.221 157.628 111.572 157.511 112.041C157.277 112.627 157.628 113.096 158.097 113.33C158.214 113.33 158.332 113.33 158.449 113.33C158.918 113.33 159.269 113.096 159.386 112.627C159.621 112.158 159.269 111.572 158.8 111.455Z" fill="white"/>
<path id="Vector_18" d="M161.73 99.3838C161.144 99.2666 160.676 99.6182 160.558 100.204C160.441 100.79 160.793 101.259 161.379 101.376H161.496C161.965 101.376 162.433 101.025 162.551 100.556C162.668 99.9698 162.199 99.501 161.73 99.3838Z" fill="white"/>
<path id="Vector_19" d="M147.081 133.253C146.612 132.902 146.026 133.019 145.674 133.371C145.323 133.839 145.44 134.425 145.792 134.777C146.026 134.894 146.143 135.011 146.378 135.011C146.612 135.011 146.964 134.894 147.198 134.66C147.55 134.308 147.55 133.605 147.081 133.253Z" fill="white"/>
<path id="Vector_20" d="M141.572 138.058C141.221 138.409 141.221 139.113 141.572 139.464C141.807 139.698 142.041 139.698 142.276 139.698C142.51 139.698 142.862 139.581 142.979 139.347C143.33 138.878 143.33 138.292 142.979 137.941C142.627 137.589 142.041 137.589 141.572 138.058Z" fill="white"/>
<path id="Vector_21" d="M94.5768 15.2374C94.694 15.2374 94.694 15.2374 94.5768 15.2374C95.1628 15.2374 95.6316 14.8859 95.6316 14.2999C95.6316 13.7139 95.28 13.2451 94.694 13.2451C94.1081 13.2451 93.6393 13.5967 93.6393 14.1827C93.6393 14.6515 93.9909 15.1202 94.5768 15.2374Z" fill="white"/>
<path id="Vector_22" d="M38.4401 34.4568C38.6745 34.4568 38.9089 34.3396 39.1433 34.2224C39.4948 33.8708 39.612 33.1676 39.1433 32.816C38.7917 32.4644 38.0885 32.3472 37.7369 32.816C37.2681 33.1676 37.2681 33.8708 37.7369 34.2224C37.8541 34.3396 38.2057 34.4568 38.4401 34.4568Z" fill="white"/>
<path id="Vector_23" d="M64.4576 18.9869C64.5748 18.9869 64.692 18.9869 64.8091 18.9869C65.3951 18.7525 65.6295 18.1666 65.3951 17.6978C65.1607 17.1118 64.5748 16.8774 64.106 17.1118C63.52 17.3462 63.2856 17.9322 63.52 18.4009C63.6372 18.6353 64.106 18.9869 64.4576 18.9869Z" fill="white"/>
<path id="Vector_24" d="M82.3886 15.2374C82.5058 15.2374 82.5058 15.2374 82.3886 15.2374C83.0918 15.2374 83.4434 14.6515 83.4434 14.1827C83.4434 13.5967 82.8574 13.2451 82.3886 13.2451C81.8026 13.2451 81.451 13.8311 81.451 14.2999C81.451 14.7687 81.9198 15.2374 82.3886 15.2374Z" fill="white"/>
<path id="Vector_25" d="M76.4115 15.9396H76.5287C77.1147 15.8224 77.4663 15.3536 77.3491 14.7676C77.2319 14.1817 76.7631 13.8301 76.1771 13.9473C75.5911 14.0645 75.2395 14.5332 75.3567 15.1192C75.4739 15.588 75.8255 15.9396 76.4115 15.9396Z" fill="white"/>
<path id="Vector_26" d="M70.4347 17.2282C70.5519 17.2282 70.5519 17.2282 70.6691 17.2282C71.2551 17.111 71.4895 16.525 71.3723 15.939C71.2551 15.353 70.6691 15.1186 70.0831 15.2358C69.4971 15.353 69.2628 15.939 69.3799 16.525C69.4971 16.8766 69.9659 17.2282 70.4347 17.2282Z" fill="white"/>
<path id="Vector_27" d="M58.8322 21.2133C58.9494 21.2133 59.0666 21.2133 59.301 21.0961C59.7698 20.8618 60.0042 20.2758 59.887 19.807C59.6526 19.221 59.0666 19.1038 58.4807 19.221C58.0119 19.4554 57.7775 20.0414 57.8947 20.6274C58.0119 20.979 58.4807 21.2133 58.8322 21.2133Z" fill="white"/>
<path id="Vector_28" d="M43.1279 30.5896C43.3623 30.5896 43.5967 30.4724 43.7139 30.3552C44.1827 30.0036 44.2999 29.4176 43.9483 28.9489C43.5967 28.4801 42.8936 28.4801 42.542 28.8317C42.0732 29.1833 41.956 29.7692 42.4248 30.238C42.542 30.3552 42.7764 30.5896 43.1279 30.5896Z" fill="white"/>
<path id="Vector_29" d="M15.3527 76.7648H15.4698C15.9386 76.7648 16.4074 76.4132 16.5246 75.9444C16.6418 75.3584 16.2902 74.8897 15.7042 74.7725C15.1183 74.6553 14.6495 75.0068 14.5323 75.5928C14.4151 76.0616 14.7667 76.6476 15.3527 76.7648Z" fill="white"/>
<path id="Vector_30" d="M16.5247 70.6698C16.6419 70.6698 16.6419 70.6698 16.7591 70.6698C17.2279 70.6698 17.5795 70.3182 17.8139 69.8495C17.9311 69.2635 17.5795 68.7947 17.1107 68.5603C16.5247 68.4431 16.0559 68.7947 15.8215 69.2635C15.7043 70.0839 15.9387 70.5526 16.5247 70.6698Z" fill="white"/>
<path id="Vector_31" d="M53.3241 23.7918C53.4413 23.7918 53.6757 23.7918 53.7929 23.6746C54.2616 23.4402 54.496 22.8542 54.2616 22.2683C54.0272 21.7995 53.3241 21.5651 52.8553 21.7995C52.3865 22.0339 52.1521 22.737 52.3865 23.2058C52.6209 23.6746 52.9725 23.7918 53.3241 23.7918Z" fill="white"/>
<path id="Vector_32" d="M48.0502 26.957C48.2846 26.957 48.4018 26.957 48.6362 26.8398C49.105 26.4882 49.2222 25.9022 48.9878 25.4334C48.6362 24.9647 48.0502 24.8475 47.5815 25.1991C47.1127 25.5506 46.9955 26.1366 47.3471 26.6054C47.4643 26.8398 47.6987 26.957 48.0502 26.957Z" fill="white"/>
<path id="Vector_33" d="M34.1038 38.7926C34.3382 38.7926 34.6898 38.6754 34.807 38.441C35.1586 37.9723 35.1586 37.3863 34.807 37.0347C34.3382 36.6831 33.7522 36.6831 33.4007 37.0347C33.0491 37.5035 33.0491 38.0894 33.4007 38.441C33.635 38.7926 33.8694 38.7926 34.1038 38.7926Z" fill="white"/>
<path id="Vector_34" d="M158.566 64.9269C158.683 64.9269 158.8 64.9269 158.917 64.9269C159.503 64.6925 159.738 64.1065 159.503 63.6377C159.269 63.0517 158.683 62.8173 158.214 63.0517C157.628 63.2861 157.394 63.7549 157.628 64.3409C157.745 64.6925 158.214 64.9269 158.566 64.9269Z" fill="white"/>
<path id="Vector_35" d="M133.369 30.3549C133.603 30.4721 133.838 30.5893 133.955 30.5893C134.189 30.5893 134.541 30.4721 134.775 30.2377C135.127 29.7689 135.01 29.183 134.541 28.8314C134.072 28.4798 133.486 28.597 133.134 29.0658C132.9 29.3002 132.9 30.0033 133.369 30.3549Z" fill="white"/>
<path id="Vector_36" d="M159.386 69.9679C159.503 70.4366 159.972 70.7882 160.324 70.7882C160.441 70.7882 160.558 70.7882 160.558 70.7882C161.144 70.671 161.378 70.0851 161.261 69.4991C161.144 68.9131 160.558 68.6787 159.972 68.7959C159.503 68.9131 159.152 69.4991 159.386 69.9679Z" fill="white"/>
<path id="Vector_37" d="M160.558 75.9444C160.676 76.4132 161.027 76.7648 161.613 76.7648H161.73C162.316 76.6476 162.668 76.1788 162.551 75.5928C162.433 75.0068 161.965 74.6553 161.379 74.7725C160.793 74.8897 160.441 75.3584 160.558 75.9444Z" fill="white"/>
<path id="Vector_38" d="M161.261 81.921C161.261 82.507 161.73 82.8585 162.316 82.8585C162.316 82.8585 162.316 82.8585 162.433 82.8585C163.019 82.8585 163.371 82.2726 163.371 81.8038C163.371 81.2178 162.785 80.8662 162.199 80.8662C161.73 80.8662 161.261 81.335 161.261 81.921Z" fill="white"/>
<path id="Vector_39" d="M106.531 17.1122C106.648 17.1122 106.648 17.1122 106.765 17.1122C107.234 17.1122 107.586 16.7606 107.703 16.2918C107.82 15.7059 107.468 15.2371 107 15.0027C106.414 14.8855 105.945 15.2371 105.828 15.7059C105.593 16.5262 105.945 16.995 106.531 17.1122Z" fill="white"/>
<path id="Vector_40" d="M100.554 15.9396H100.671C101.14 15.9396 101.609 15.588 101.726 15.1192C101.843 14.5332 101.492 14.0645 100.906 13.9473C100.32 13.8301 99.8508 14.1817 99.7336 14.7676C99.6164 15.3536 100.085 15.8224 100.554 15.9396Z" fill="white"/>
<path id="Vector_41" d="M112.274 18.8687C112.391 18.8687 112.508 18.9859 112.625 18.9859C113.094 18.9859 113.446 18.7515 113.563 18.2827C113.797 17.6967 113.446 17.1107 112.977 16.9936C112.391 16.7592 111.805 17.1107 111.688 17.5795C111.453 18.1655 111.688 18.7515 112.274 18.8687Z" fill="white"/>
<path id="Vector_42" d="M123.29 23.7912C123.407 23.9084 123.641 23.9084 123.759 23.9084C124.11 23.9084 124.462 23.674 124.696 23.3224C124.931 22.8536 124.813 22.1504 124.227 21.916C123.759 21.6816 123.055 21.7988 122.821 22.2676C122.587 22.8536 122.821 23.4396 123.29 23.7912Z" fill="white"/>
<path id="Vector_43" d="M128.447 26.8379C128.564 26.955 128.798 26.955 129.033 26.955C129.384 26.955 129.736 26.8379 129.853 26.4863C130.205 26.0175 130.087 25.3143 129.619 25.0799C129.15 24.7283 128.564 24.8455 128.212 25.3143C127.861 25.9003 127.978 26.4863 128.447 26.8379Z" fill="white"/>
<path id="Vector_44" d="M117.899 21.0973C118.016 21.0973 118.133 21.2145 118.25 21.2145C118.602 21.2145 119.071 20.9801 119.188 20.6285C119.422 20.1597 119.188 19.4565 118.719 19.2221C118.25 18.9878 117.547 19.2221 117.313 19.8081C117.196 20.2769 117.43 20.8629 117.899 21.0973Z" fill="white"/>
<path id="Vector_45" d="M18.8684 62.9354C18.2824 62.7011 17.6964 63.0526 17.5792 63.5214C17.3449 64.1074 17.6964 64.6934 18.1652 64.8106C18.2824 64.8106 18.3996 64.8106 18.5168 64.8106C18.9856 64.8106 19.3372 64.5762 19.4544 64.1074C19.6888 63.6386 19.3372 63.0526 18.8684 62.9354Z" fill="white"/>
<path id="Vector_46" d="M30.8226 41.6063C30.3538 41.2547 29.7678 41.3719 29.4162 41.8407C29.0646 42.3095 29.1818 42.8954 29.5334 43.247C29.7678 43.3642 30.0022 43.4814 30.1194 43.4814C30.3538 43.4814 30.7054 43.3642 30.9397 43.1298C31.2913 42.661 31.1741 41.9579 30.8226 41.6063Z" fill="white"/>
<path id="Vector_47" d="M155.987 57.3107C155.519 57.5451 155.284 58.131 155.402 58.5998C155.519 58.9514 155.987 59.1858 156.339 59.1858C156.456 59.1858 156.573 59.1858 156.691 59.0686C157.159 58.8342 157.394 58.2482 157.159 57.6622C157.042 57.3107 156.456 57.0763 155.987 57.3107Z" fill="white"/>
<path id="Vector_48" d="M153.175 51.8017C152.706 52.0361 152.472 52.622 152.823 53.208C153.058 53.5596 153.409 53.794 153.761 53.794C153.878 53.794 154.113 53.794 154.23 53.6768C154.698 53.4424 154.933 52.7392 154.581 52.2704C154.347 51.6845 153.644 51.5673 153.175 51.8017Z" fill="white"/>
<path id="Vector_49" d="M14.6494 82.8585C14.7666 82.8585 14.7666 82.8585 14.6494 82.8585C15.2354 82.8585 15.7042 82.507 15.7042 81.921C15.7042 81.335 15.3526 80.8662 14.7666 80.8662C14.1806 80.8662 13.7119 81.2178 13.7119 81.8038C13.7119 82.2726 14.1806 82.7413 14.6494 82.8585Z" fill="white"/>
<path id="Vector_50" d="M146.378 41.7233C145.909 42.0749 145.792 42.6608 146.143 43.1296C146.378 43.364 146.612 43.4812 146.964 43.4812C147.198 43.4812 147.432 43.364 147.55 43.2468C148.018 42.8952 148.018 42.3093 147.784 41.8405C147.432 41.3717 146.729 41.3717 146.378 41.7233Z" fill="white"/>
<path id="Vector_51" d="M142.276 37.0358C141.807 37.3874 141.807 38.0905 142.276 38.4421C142.51 38.6765 142.745 38.7937 142.979 38.7937C143.213 38.7937 143.448 38.6765 143.682 38.5593C144.034 38.2077 144.151 37.5046 143.682 37.153C143.331 36.6842 142.745 36.6842 142.276 37.0358Z" fill="white"/>
<path id="Vector_52" d="M23.908 51.8013C23.4392 51.5669 22.736 51.6841 22.5017 52.1529C22.2673 52.6216 22.3845 53.3248 22.8532 53.5592C22.9704 53.6764 23.2048 53.6764 23.322 53.6764C23.6736 53.6764 24.0252 53.442 24.2596 53.0904C24.6112 52.6216 24.3768 52.0357 23.908 51.8013Z" fill="white"/>
<path id="Vector_53" d="M150.01 46.6445C149.542 46.9961 149.424 47.5821 149.776 48.0509C150.01 48.2853 150.245 48.5197 150.596 48.5197C150.831 48.5197 150.948 48.5197 151.182 48.4025C151.651 48.0509 151.768 47.4649 151.417 46.9961C151.065 46.4102 150.479 46.293 150.01 46.6445Z" fill="white"/>
<path id="Vector_54" d="M27.1895 46.6444C26.7207 46.2928 26.1348 46.41 25.7832 46.8788C25.4316 47.3475 25.5488 47.9335 26.0176 48.2851C26.2519 48.4023 26.3691 48.4023 26.6035 48.4023C26.9551 48.4023 27.3067 48.2851 27.4239 47.9335C27.7755 47.5819 27.6583 46.8788 27.1895 46.6444Z" fill="white"/>
<path id="Vector_55" d="M21.2125 57.1919C20.7437 56.9575 20.0406 57.1919 19.9234 57.7778C19.689 58.2466 19.9234 58.9498 20.3922 59.1842C20.5094 59.1842 20.6265 59.3014 20.8609 59.3014C21.2125 59.3014 21.6813 59.067 21.7985 58.7154C21.9157 58.1294 21.6813 57.4263 21.2125 57.1919Z" fill="white"/>
<path id="Vector_56" d="M139.346 32.6979C138.877 32.3463 138.291 32.3463 137.94 32.8151C137.588 33.2839 137.588 33.8698 137.94 34.2214C138.174 34.4558 138.408 34.4558 138.643 34.4558C138.877 34.4558 139.229 34.3386 139.346 34.1042C139.815 33.7526 139.815 33.1667 139.346 32.6979Z" fill="white"/>
<path id="Vector_57" d="M18.048 110.752C17.462 110.986 17.2276 111.455 17.462 112.041C17.5792 112.51 18.048 112.744 18.3996 112.744C18.5168 112.744 18.634 112.744 18.7512 112.744C19.3371 112.627 19.5715 112.041 19.3371 111.455C19.2199 110.752 18.634 110.518 18.048 110.752Z" fill="white"/>
<path id="Vector_58" d="M17.6964 105.594C17.5792 105.008 16.9932 104.773 16.5245 104.891C15.9385 105.008 15.5869 105.594 15.8213 106.18C15.9385 106.649 16.4073 107 16.7588 107C16.876 107 16.876 107 16.9932 107C17.5792 106.766 17.8136 106.18 17.6964 105.594Z" fill="white"/>
<path id="Vector_59" d="M32.932 136.769C32.5804 137.12 32.4632 137.823 32.8148 138.175C33.0492 138.409 33.2835 138.527 33.6351 138.527C33.8695 138.527 34.1039 138.409 34.3383 138.292C34.8071 137.941 34.8071 137.237 34.4555 136.886C33.9867 136.417 33.4007 136.417 32.932 136.769Z" fill="white"/>
<path id="Vector_60" d="M14.8839 94.9303C15.4699 94.9303 15.8215 94.3443 15.8215 93.8755C15.8215 93.2896 15.2355 92.938 14.7667 92.938C14.1808 92.938 13.8292 93.524 13.8292 93.9927C13.8292 94.5787 14.2979 94.9303 14.8839 94.9303C14.7667 94.9303 14.7667 94.9303 14.8839 94.9303Z" fill="white"/>
<path id="Vector_61" d="M16.5246 99.7344C16.5246 99.8516 16.5246 99.8516 16.5246 99.7344C16.4074 99.1484 15.9386 98.7969 15.3527 98.9141C14.7667 99.0313 14.4151 99.5 14.5323 100.086C14.6495 100.555 15.1183 100.906 15.587 100.906H15.7042C16.173 100.906 16.6418 100.32 16.5246 99.7344Z" fill="white"/>
<path id="Vector_62" d="M29.1818 132.081C28.713 132.433 28.5958 133.019 28.9474 133.488C29.1818 133.722 29.4162 133.839 29.7678 133.839C30.0022 133.839 30.2366 133.722 30.3538 133.605C30.8225 133.253 30.9397 132.667 30.5882 132.199C30.2366 131.847 29.5334 131.73 29.1818 132.081Z" fill="white"/>
<path id="Vector_63" d="M20.1575 116.376C19.5716 116.61 19.3372 117.196 19.5716 117.665C19.6888 118.016 20.1575 118.251 20.5091 118.251C20.6263 118.251 20.7435 118.251 20.8607 118.134C21.3295 117.899 21.5639 117.313 21.4467 116.844C21.3295 116.376 20.7435 116.141 20.1575 116.376Z" fill="white"/>
<path id="Vector_64" d="M25.7832 127.159C25.3144 127.511 25.1972 128.097 25.4316 128.566C25.666 128.917 26.0176 129.034 26.252 129.034C26.4863 129.034 26.6035 129.034 26.8379 128.917C27.3067 128.566 27.4239 127.98 27.1895 127.511C26.8379 126.925 26.252 126.808 25.7832 127.159Z" fill="white"/>
<path id="Vector_65" d="M22.7361 121.885C22.2673 122.119 22.0329 122.705 22.2673 123.291C22.5017 123.643 22.8533 123.877 23.2049 123.877C23.3221 123.877 23.5565 123.877 23.6737 123.76C24.1424 123.526 24.3768 122.94 24.1424 122.354C23.908 121.768 23.2049 121.533 22.7361 121.885Z" fill="white"/>
<path id="Vector_66" d="M162.668 86.9595C162.082 86.9595 161.613 87.4283 161.613 88.0142C161.613 88.6002 162.082 89.069 162.668 89.069C163.254 89.069 163.722 88.6002 163.722 88.0142C163.605 87.3111 163.254 86.9595 162.668 86.9595Z" fill="white"/>
<path id="Vector_67" d="M122.587 154.818C123.169 154.818 123.641 154.345 123.641 153.763C123.641 153.18 123.169 152.708 122.587 152.708C122.004 152.708 121.532 153.18 121.532 153.763C121.532 154.345 122.004 154.818 122.587 154.818Z" fill="white"/>
<path id="Vector_68" d="M14.5324 88.9523C15.1183 88.9523 15.5871 88.4835 15.5871 87.8975C15.5871 87.3116 15.1183 86.8428 14.5324 86.8428C13.9464 86.8428 13.4776 87.3116 13.4776 87.8975C13.4776 88.4835 13.9464 88.9523 14.5324 88.9523Z" fill="white"/>
<path id="Vector_69" d="M88.5999 15.0021C89.1859 15.0021 89.6547 14.5333 89.6547 13.9473C89.6547 13.3614 89.1859 12.8926 88.5999 12.8926C88.014 12.8926 87.5452 13.3614 87.5452 13.9473C87.5452 14.5333 88.014 15.0021 88.5999 15.0021Z" fill="white"/>
<path id="Vector_70" d="M37.2681 141.104C36.9166 141.456 36.7994 142.159 37.1509 142.51C37.3853 142.745 37.6197 142.862 37.9713 142.862C38.2057 142.862 38.4401 142.745 38.6745 142.628C39.1433 142.276 39.1433 141.573 38.7917 141.221C38.3229 140.753 37.6197 140.753 37.2681 141.104Z" fill="white"/>
</g>
</g>
</svg>
