<svg width="192" height="41" viewBox="0 0 192 41" fill="none" xmlns="http://www.w3.org/2000/svg">
<g clip-path="url(#clip0_7_2049)">
<path d="M170.268 40.9976C166.228 40.9974 162.28 39.7949 158.921 37.5422C155.563 35.2896 152.945 32.0879 151.399 28.3421C149.854 24.5963 149.449 20.4747 150.238 16.4983C151.026 12.5219 152.971 8.8694 155.828 6.00265C158.684 3.13591 162.323 1.18368 166.285 0.392821C170.247 -0.398038 174.354 0.00799547 178.086 1.55958C181.817 3.11117 185.007 5.7386 187.251 9.10967C189.496 12.4807 190.693 16.444 190.693 20.4983C190.687 25.9334 188.533 31.1441 184.704 34.9872C180.875 38.8303 175.683 40.9918 170.268 40.9976ZM170.268 1.55312C166.535 1.55339 162.885 2.66475 159.781 4.74664C156.678 6.82854 154.258 9.78747 152.83 13.2493C151.402 16.7111 151.028 20.5203 151.756 24.1952C152.485 27.8701 154.283 31.2457 156.923 33.8951C159.562 36.5445 162.926 38.3487 166.587 39.0796C170.249 39.8105 174.044 39.4353 177.493 38.0013C180.942 36.5673 183.89 34.1391 185.964 31.0236C188.038 27.9081 189.145 24.2453 189.145 20.4983C189.139 15.4754 187.148 10.6599 183.609 7.10846C180.07 3.55697 175.272 1.55958 170.268 1.5545V1.55312Z" fill="white"/>
<path d="M181.09 15.0069C180.963 14.5244 180.711 14.0841 180.36 13.73C180.01 13.376 179.573 13.1206 179.093 12.9896C173.226 12.3541 167.309 12.3541 161.442 12.9896C160.962 13.121 160.525 13.3764 160.175 13.7305C159.825 14.0845 159.573 14.5247 159.446 15.0069C158.816 18.6415 158.816 22.3579 159.446 25.9925C159.573 26.4748 159.825 26.915 160.175 27.2691C160.525 27.6231 160.962 27.8786 161.442 28.0098C167.309 28.6454 173.226 28.6454 179.093 28.0098C179.573 27.8789 180.01 27.6236 180.361 27.2695C180.711 26.9154 180.963 26.475 181.09 25.9925C181.719 22.3579 181.719 18.6416 181.09 15.0069ZM167.958 23.871V17.1298L173.862 20.5011L167.958 23.871Z" fill="white"/>
<path d="M20.4248 40.9967C16.3854 40.9964 12.4368 39.7939 9.07824 37.5413C5.71972 35.2887 3.10213 32.0872 1.55645 28.3415C0.0107677 24.5958 -0.393577 20.4742 0.394535 16.4978C1.18265 12.5215 3.12782 8.86896 5.9841 6.00216C8.84038 3.13536 12.4795 1.18303 16.4413 0.392013C20.403 -0.399001 24.5095 0.00683266 28.2414 1.55821C31.9734 3.10958 35.1633 5.7368 37.4076 9.10769C39.6519 12.4786 40.85 16.4417 40.8503 20.496C40.8445 25.9313 38.6906 31.1424 34.8613 34.9857C31.0321 38.8291 25.8402 40.9909 20.4248 40.9967ZM20.4248 1.55214C16.6915 1.55214 13.0421 2.66327 9.93796 4.745C6.83387 6.82673 4.41454 9.78555 2.98589 13.2473C1.55723 16.7091 1.1834 20.5184 1.91173 24.1934C2.64005 27.8684 4.43778 31.2441 7.07759 33.8936C9.71741 36.5432 13.0808 38.3475 16.7423 39.0786C20.4038 39.8096 24.1991 39.4344 27.6481 38.0005C31.0972 36.5665 34.0452 34.1383 36.1193 31.0228C38.1934 27.9072 39.3005 24.2444 39.3005 20.4974C39.2947 15.4747 37.3041 10.6594 33.7654 7.10796C30.2267 3.55652 25.429 1.55896 20.4248 1.55352V1.55214Z" fill="white"/>
<path d="M9.95532 27.102C11.8416 28.3153 14.0239 28.9846 16.2636 29.0368C18.5033 29.089 20.7143 28.5219 22.6546 27.3978C24.5948 26.2736 26.1897 24.6356 27.2648 22.6628C28.3399 20.6901 28.8539 18.4586 28.7505 16.2124C29.5918 15.6028 30.3177 14.8472 30.8941 13.9813C30.11 14.3296 29.2784 14.5582 28.4269 14.6596C29.324 14.1213 29.9952 13.2737 30.3153 12.2751C29.4711 12.7777 28.5475 13.1318 27.5844 13.3221C26.9372 12.6291 26.0802 12.1698 25.1464 12.0155C24.2126 11.8613 23.2542 12.0206 22.4199 12.4688C21.5855 12.9171 20.9219 13.6291 20.5319 14.4946C20.1419 15.36 20.0474 16.3304 20.263 17.2553C18.5547 17.1695 16.8835 16.7239 15.358 15.9476C13.8324 15.1713 12.4867 14.0816 11.4081 12.7492C10.8592 13.6986 10.6912 14.8221 10.9382 15.8913C11.1853 16.9606 11.8288 17.8952 12.738 18.5051C12.0555 18.4842 11.3879 18.2995 10.791 17.9666C10.7786 18.9713 11.116 19.9489 11.7449 20.7307C12.3738 21.5125 13.2548 22.0496 14.236 22.2492C13.6038 22.4224 12.9404 22.4477 12.297 22.3233C12.571 23.1802 13.1052 23.9297 13.8248 24.4667C14.5445 25.0037 15.4135 25.3012 16.31 25.3177C14.5109 26.7338 12.2254 27.3755 9.95532 27.102Z" fill="white"/>
<path d="M70.3723 40.9976C66.3329 40.9974 62.3843 39.7949 59.0258 37.5423C55.6673 35.2897 53.0497 32.0882 51.504 28.3424C49.9583 24.5967 49.554 20.4751 50.3421 16.4988C51.1302 12.5224 53.0754 8.86993 55.9317 6.00314C58.788 3.13634 62.4271 1.184 66.3888 0.392989C70.3506 -0.398025 74.457 0.00780922 78.189 1.55918C81.921 3.11056 85.1108 5.73778 87.3552 9.10867C89.5995 12.4796 90.7975 16.4427 90.7978 20.497C90.7917 25.9322 88.6377 31.143 84.8086 34.9863C80.9794 38.8296 75.7876 40.9915 70.3723 40.9976ZM70.3723 1.55312C66.639 1.55312 62.9896 2.66425 59.8855 4.74598C56.7814 6.8277 54.3621 9.78653 52.9335 13.2483C51.5048 16.7101 51.131 20.5194 51.8593 24.1944C52.5876 27.8694 54.3853 31.2451 57.0252 33.8946C59.665 36.5442 63.0283 38.3485 66.6899 39.0795C70.3514 39.8105 74.1466 39.4354 77.5957 38.0014C81.0448 36.5675 83.9928 34.1393 86.0669 31.0237C88.141 27.9082 89.248 24.2453 89.248 20.4983C89.2419 15.4758 87.2512 10.6607 83.7126 7.10933C80.174 3.55797 75.3764 1.5603 70.3723 1.5545V1.55312Z" fill="white"/>
<path d="M67.3779 32.4199H72.1569V20.3982H75.4941L75.8504 16.3718H72.1638V14.079C72.1638 13.1293 72.3535 12.7552 73.267 12.7552H75.8614V8.57666H72.5434C68.9837 8.57666 67.3779 10.1513 67.3779 13.1622V16.3704H64.8901V20.4462H67.3779V32.4199Z" fill="white"/>
<path d="M120.321 40.9977C116.282 40.9977 112.333 39.7954 108.975 37.543C105.616 35.2906 102.998 32.0891 101.452 28.3434C99.9062 24.5977 99.5018 20.4761 100.29 16.4996C101.078 12.5232 103.023 8.87056 105.879 6.00363C108.735 3.13669 112.374 1.18421 116.336 0.393084C120.298 -0.398041 124.404 0.00773473 128.136 1.55907C131.868 3.1104 135.058 5.73764 137.303 9.10855C139.547 12.4795 140.745 16.4426 140.746 20.497C140.74 25.9321 138.586 31.1429 134.757 34.9863C130.928 38.8296 125.737 40.9915 120.321 40.9977ZM120.321 1.55313C116.588 1.55286 112.939 2.66371 109.834 4.74521C106.73 6.82671 104.311 9.78539 102.882 13.2471C101.453 16.7088 101.079 20.518 101.807 24.193C102.535 27.8681 104.332 31.2439 106.972 33.8937C109.612 36.5434 112.975 38.348 116.636 39.0793C120.298 39.8105 124.093 39.4356 127.542 38.002C130.991 36.5683 133.94 34.1403 136.014 31.0249C138.088 27.9095 139.196 24.2467 139.196 20.4997C139.19 15.477 137.2 10.6616 133.662 7.10993C130.123 3.55823 125.326 1.56031 120.321 1.55451V1.55313Z" fill="white"/>
<path d="M120.321 11.6358C123.198 11.6358 123.538 11.6468 124.676 11.6988C125.359 11.7065 126.035 11.8321 126.676 12.0703C127.142 12.2502 127.564 12.5261 127.917 12.8802C128.27 13.2343 128.545 13.6587 128.724 14.1259C128.962 14.7694 129.087 15.4489 129.096 16.135C129.147 17.2752 129.158 17.6165 129.158 20.504C129.158 23.3916 129.147 23.7342 129.096 24.8744C129.087 25.5601 128.962 26.2392 128.724 26.8822C128.545 27.3495 128.27 27.774 127.917 28.1281C127.565 28.4822 127.142 28.7581 126.676 28.9379C126.035 29.176 125.359 29.3016 124.676 29.3092C123.538 29.3613 123.2 29.3723 120.321 29.3723C117.443 29.3723 117.104 29.3613 115.968 29.3092C115.285 29.3016 114.608 29.176 113.967 28.9379C113.501 28.7581 113.078 28.4822 112.725 28.1281C112.372 27.774 112.098 27.3495 111.918 26.8822C111.681 26.2392 111.556 25.56 111.548 24.8744C111.495 23.7342 111.486 23.393 111.486 20.504C111.486 17.6151 111.497 17.2752 111.548 16.135C111.556 15.449 111.681 14.7694 111.918 14.1259C112.098 13.6587 112.373 13.2343 112.725 12.8802C113.078 12.5261 113.501 12.2502 113.967 12.0703C114.608 11.8321 115.285 11.7065 115.968 11.6988C117.104 11.6468 117.444 11.6358 120.321 11.6358ZM120.321 9.68701C117.395 9.68701 117.029 9.69935 115.88 9.7528C114.986 9.77057 114.102 9.94065 113.265 10.2558C112.549 10.5333 111.899 10.9581 111.356 11.5028C110.814 12.0476 110.391 12.7002 110.115 13.4188C109.801 14.2587 109.631 15.1462 109.614 16.0432C109.56 17.1971 109.548 17.5658 109.548 20.5013C109.548 23.4368 109.56 23.8069 109.614 24.9608C109.631 25.8578 109.801 26.7453 110.115 27.5852C110.391 28.3038 110.814 28.9564 111.356 29.5011C111.899 30.0459 112.549 30.4707 113.265 30.7482C114.102 31.0628 114.986 31.2328 115.88 31.2512C117.029 31.3046 117.395 31.317 120.321 31.317C123.247 31.317 123.615 31.3046 124.763 31.2512C125.657 31.233 126.542 31.0629 127.379 30.7482C128.095 30.4705 128.745 30.0457 129.288 29.501C129.831 28.9563 130.254 28.3038 130.531 27.5852C130.844 26.7451 131.014 25.8577 131.032 24.9608C131.085 23.8069 131.096 23.4382 131.096 20.5013C131.096 17.5644 131.085 17.1958 131.032 16.0432C131.014 15.1462 130.844 14.2589 130.531 13.4188C130.254 12.7002 129.831 12.0477 129.288 11.503C128.745 10.9583 128.095 10.5335 127.379 10.2558C126.542 9.9405 125.657 9.77041 124.763 9.7528C123.613 9.69935 123.247 9.68701 120.321 9.68701Z" fill="white"/>
<path d="M120.323 14.9482C119.228 14.9482 118.159 15.2739 117.249 15.8841C116.339 16.4943 115.63 17.3616 115.211 18.3763C114.792 19.391 114.683 20.5075 114.896 21.5847C115.11 22.6619 115.637 23.6514 116.41 24.428C117.184 25.2046 118.17 25.7335 119.243 25.9477C120.316 26.162 121.429 26.052 122.44 25.6317C123.451 25.2114 124.315 24.4997 124.923 23.5865C125.531 22.6733 125.855 21.5996 125.855 20.5013C125.855 19.0286 125.272 17.6161 124.235 16.5747C123.197 15.5333 121.79 14.9482 120.323 14.9482ZM120.323 24.107C119.612 24.107 118.918 23.8957 118.328 23.4997C117.737 23.1037 117.277 22.5409 117.005 21.8823C116.733 21.2238 116.662 20.4992 116.8 19.8001C116.939 19.1009 117.281 18.4587 117.783 17.9546C118.285 17.4504 118.925 17.1071 119.621 16.9678C120.318 16.8286 121.04 16.8998 121.696 17.1724C122.352 17.445 122.913 17.9067 123.308 18.4993C123.703 19.0918 123.913 19.7885 123.914 20.5013C123.914 21.4574 123.535 22.3743 122.862 23.0505C122.189 23.7266 121.275 24.1066 120.323 24.107Z" fill="white"/>
<path d="M127.367 14.7278C127.367 14.9845 127.291 15.2354 127.149 15.4488C127.007 15.6622 126.805 15.8286 126.569 15.9268C126.332 16.025 126.072 16.0507 125.822 16.0007C125.571 15.9506 125.34 15.827 125.159 15.6455C124.979 15.464 124.855 15.2327 124.806 14.981C124.756 14.7292 124.781 14.4683 124.879 14.2311C124.977 13.994 125.143 13.7913 125.355 13.6487C125.568 13.5061 125.818 13.4299 126.074 13.4299C126.417 13.4299 126.746 13.5667 126.988 13.8101C127.231 14.0535 127.367 14.3836 127.367 14.7278Z" fill="white"/>
</g>
<defs>
<clipPath id="clip0_7_2049">
<rect width="192" height="41" fill="white"/>
</clipPath>
</defs>
</svg>
